<?xml version="1.0" encoding="UTF-8" standalone="no"?>
<!DOCTYPE svg PUBLIC "-//W3C//DTD SVG 1.1//EN"
 "http://www.w3.org/Graphics/SVG/1.1/DTD/svg11.dtd">
<!-- Generated by graphviz version 5.0.0 (20220707.1540)
 -->
<!-- Title: dependencies Pages: 1 -->
<svg width="510pt" height="247pt"
 viewBox="0.00 0.00 510.00 246.80" xmlns="http://www.w3.org/2000/svg" xmlns:xlink="http://www.w3.org/1999/xlink">
<g id="graph0" class="graph" transform="scale(1 1) rotate(0) translate(4 242.8)">
<title>dependencies</title>
<polygon fill="white" stroke="transparent" points="-4,4 -4,-242.8 506,-242.8 506,4 -4,4"/>
<text text-anchor="middle" x="251" y="-8.2" font-family="sans-serif" font-size="14.00">dependencies</text>
<g id="clust1" class="cluster">
<title>cluster_AppModule</title>
<polygon fill="none" stroke="black" stroke-dasharray="1,5" points="8,-32.8 8,-230.8 494,-230.8 494,-32.8 8,-32.8"/>
</g>
<g id="clust2" class="cluster">
<title>cluster_AppModule_declarations</title>
<polygon fill="none" stroke="black" points="364,-40.8 364,-92.8 486,-92.8 486,-40.8 364,-40.8"/>
</g>
<g id="clust4" class="cluster">
<title>cluster_AppModule_imports</title>
<polygon fill="none" stroke="black" points="212,-40.8 212,-92.8 356,-92.8 356,-40.8 212,-40.8"/>
</g>
<g id="clust6" class="cluster">
<title>cluster_AppModule_bootstrap</title>
<polygon fill="none" stroke="black" points="222,-170.8 222,-222.8 346,-222.8 346,-170.8 222,-170.8"/>
</g>
<g id="clust7" class="cluster">
<title>cluster_AppModule_providers</title>
<polygon fill="none" stroke="black" points="16,-40.8 16,-92.8 204,-92.8 204,-40.8 16,-40.8"/>
</g>
<!-- AppComponent -->
<g id="node1" class="node">
<title>AppComponent</title>
<polygon fill="#ffffb3" stroke="black" points="477.94,-84.8 372.06,-84.8 372.06,-48.8 477.94,-48.8 477.94,-84.8"/>
<text text-anchor="middle" x="425" y="-62.6" font-family="Times,serif" font-size="14.00">AppComponent</text>
</g>
<!-- AppModule -->
<g id="node2" class="node">
<title>AppModule</title>
<polygon fill="#8dd3c7" stroke="black" points="325.66,-149.8 322.66,-153.8 301.66,-153.8 298.66,-149.8 242.34,-149.8 242.34,-113.8 325.66,-113.8 325.66,-149.8"/>
<text text-anchor="middle" x="284" y="-127.6" font-family="Times,serif" font-size="14.00">AppModule</text>
</g>
<!-- AppComponent&#45;&gt;AppModule -->
<g id="edge1" class="edge">
<title>AppComponent&#45;&gt;AppModule</title>
<path fill="none" stroke="black" d="M425,-84.91C425,-104.14 425,-131.8 425,-131.8 425,-131.8 335.92,-131.8 335.92,-131.8"/>
<polygon fill="black" stroke="black" points="335.92,-128.3 325.92,-131.8 335.92,-135.3 335.92,-128.3"/>
</g>
<!-- AppComponent  -->
<g id="node4" class="node">
<title>AppComponent </title>
<polygon fill="#80b1d3" stroke="black" points="338.44,-214.8 229.56,-214.8 229.56,-178.8 338.44,-178.8 338.44,-214.8"/>
<text text-anchor="middle" x="284" y="-192.6" font-family="Times,serif" font-size="14.00">AppComponent </text>
</g>
<!-- AppModule&#45;&gt;AppComponent  -->
<g id="edge3" class="edge">
<title>AppModule&#45;&gt;AppComponent </title>
<path fill="none" stroke="black" stroke-dasharray="1,5" d="M284,-149.91C284,-149.91 284,-168.79 284,-168.79"/>
<polygon fill="black" stroke="black" points="280.5,-168.79 284,-178.79 287.5,-168.79 280.5,-168.79"/>
</g>
<!-- AppRoutingModule -->
<g id="node3" class="node">
<title>AppRoutingModule</title>
<polygon fill="#8dd3c7" stroke="black" points="348.28,-84.8 345.28,-88.8 324.28,-88.8 321.28,-84.8 219.72,-84.8 219.72,-48.8 348.28,-48.8 348.28,-84.8"/>
<text text-anchor="middle" x="284" y="-62.6" font-family="Times,serif" font-size="14.00">AppRoutingModule</text>
</g>
<!-- AppRoutingModule&#45;&gt;AppModule -->
<g id="edge2" class="edge">
<title>AppRoutingModule&#45;&gt;AppModule</title>
<path fill="none" stroke="black" d="M284,-84.91C284,-84.91 284,-103.79 284,-103.79"/>
<polygon fill="black" stroke="black" points="280.5,-103.79 284,-113.79 287.5,-103.79 280.5,-103.79"/>
</g>
<!-- LoggingInterceptor -->
<g id="node5" class="node">
<title>LoggingInterceptor</title>
<ellipse fill="#fdb462" stroke="black" cx="110" cy="-66.8" rx="86.24" ry="18"/>
<text text-anchor="middle" x="110" y="-62.6" font-family="Times,serif" font-size="14.00">LoggingInterceptor</text>
</g>
<!-- LoggingInterceptor&#45;&gt;AppModule -->
<g id="edge4" class="edge">
<title>LoggingInterceptor&#45;&gt;AppModule</title>
<path fill="none" stroke="black" d="M110,-84.91C110,-104.14 110,-131.8 110,-131.8 110,-131.8 232.32,-131.8 232.32,-131.8"/>
<polygon fill="black" stroke="black" points="232.32,-135.3 242.32,-131.8 232.32,-128.3 232.32,-135.3"/>
</g>
</g>
</svg>
