<?xml version="1.0" encoding="UTF-8" standalone="no"?>
<!DOCTYPE svg PUBLIC "-//W3C//DTD SVG 1.1//EN"
 "http://www.w3.org/Graphics/SVG/1.1/DTD/svg11.dtd">
<!-- Generated by graphviz version 5.0.0 (20220707.1540)
 -->
<!-- Title: dependencies Pages: 1 -->
<svg width="366pt" height="247pt"
 viewBox="0.00 0.00 366.00 246.80" xmlns="http://www.w3.org/2000/svg" xmlns:xlink="http://www.w3.org/1999/xlink">
<g id="graph0" class="graph" transform="scale(1 1) rotate(0) translate(4 242.8)">
<title>dependencies</title>
<polygon fill="white" stroke="transparent" points="-4,4 -4,-242.8 362,-242.8 362,4 -4,4"/>
<text text-anchor="middle" x="179" y="-8.2" font-family="sans-serif" font-size="14.00">dependencies</text>
<g id="clust1" class="cluster">
<title>cluster_UserInfoModule</title>
<polygon fill="none" stroke="black" stroke-dasharray="1,5" points="8,-32.8 8,-230.8 350,-230.8 350,-32.8 8,-32.8"/>
</g>
<g id="clust4" class="cluster">
<title>cluster_UserInfoModule_imports</title>
<polygon fill="none" stroke="black" points="172,-40.8 172,-92.8 342,-92.8 342,-40.8 172,-40.8"/>
</g>
<g id="clust2" class="cluster">
<title>cluster_UserInfoModule_declarations</title>
<polygon fill="none" stroke="black" points="16,-40.8 16,-92.8 164,-92.8 164,-40.8 16,-40.8"/>
</g>
<g id="clust5" class="cluster">
<title>cluster_UserInfoModule_exports</title>
<polygon fill="none" stroke="black" points="99,-170.8 99,-222.8 249,-222.8 249,-170.8 99,-170.8"/>
</g>
<!-- UserInfoComponent -->
<g id="node1" class="node">
<title>UserInfoComponent</title>
<polygon fill="#ffffb3" stroke="black" points="155.59,-84.8 24.41,-84.8 24.41,-48.8 155.59,-48.8 155.59,-84.8"/>
<text text-anchor="middle" x="90" y="-62.6" font-family="Times,serif" font-size="14.00">UserInfoComponent</text>
</g>
<!-- UserInfoModule -->
<g id="node2" class="node">
<title>UserInfoModule</title>
<polygon fill="#8dd3c7" stroke="black" points="228.81,-149.8 225.81,-153.8 204.81,-153.8 201.81,-149.8 119.19,-149.8 119.19,-113.8 228.81,-113.8 228.81,-149.8"/>
<text text-anchor="middle" x="174" y="-127.6" font-family="Times,serif" font-size="14.00">UserInfoModule</text>
</g>
<!-- UserInfoComponent&#45;&gt;UserInfoModule -->
<g id="edge1" class="edge">
<title>UserInfoComponent&#45;&gt;UserInfoModule</title>
<path fill="none" stroke="black" d="M137.44,-84.91C137.44,-84.91 137.44,-103.79 137.44,-103.79"/>
<polygon fill="black" stroke="black" points="133.94,-103.79 137.44,-113.79 140.94,-103.79 133.94,-103.79"/>
</g>
<!-- UserInfoComponent  -->
<g id="node4" class="node">
<title>UserInfoComponent </title>
<polygon fill="#fb8072" stroke="black" points="241.09,-214.8 106.91,-214.8 106.91,-178.8 241.09,-178.8 241.09,-214.8"/>
<text text-anchor="middle" x="174" y="-192.6" font-family="Times,serif" font-size="14.00">UserInfoComponent </text>
</g>
<!-- UserInfoModule&#45;&gt;UserInfoComponent  -->
<g id="edge3" class="edge">
<title>UserInfoModule&#45;&gt;UserInfoComponent </title>
<path fill="none" stroke="black" stroke-dasharray="5,2" d="M174,-149.91C174,-149.91 174,-168.79 174,-168.79"/>
<polygon fill="black" stroke="black" points="170.5,-168.79 174,-178.79 177.5,-168.79 170.5,-168.79"/>
</g>
<!-- UserInfoRoutingModule -->
<g id="node3" class="node">
<title>UserInfoRoutingModule</title>
<polygon fill="#8dd3c7" stroke="black" points="334.43,-84.8 331.43,-88.8 310.43,-88.8 307.43,-84.8 179.57,-84.8 179.57,-48.8 334.43,-48.8 334.43,-84.8"/>
<text text-anchor="middle" x="257" y="-62.6" font-family="Times,serif" font-size="14.00">UserInfoRoutingModule</text>
</g>
<!-- UserInfoRoutingModule&#45;&gt;UserInfoModule -->
<g id="edge2" class="edge">
<title>UserInfoRoutingModule&#45;&gt;UserInfoModule</title>
<path fill="none" stroke="black" d="M204.22,-84.91C204.22,-84.91 204.22,-103.79 204.22,-103.79"/>
<polygon fill="black" stroke="black" points="200.72,-103.79 204.22,-113.79 207.72,-103.79 200.72,-103.79"/>
</g>
</g>
</svg>
