<?xml version="1.0" encoding="UTF-8" standalone="no"?>
<!DOCTYPE svg PUBLIC "-//W3C//DTD SVG 1.1//EN"
 "http://www.w3.org/Graphics/SVG/1.1/DTD/svg11.dtd">
<!-- Generated by graphviz version 5.0.0 (20220707.1540)
 -->
<!-- Title: dependencies Pages: 1 -->
<svg width="2230pt" height="247pt"
 viewBox="0.00 0.00 2230.00 246.80" xmlns="http://www.w3.org/2000/svg" xmlns:xlink="http://www.w3.org/1999/xlink">
<g id="graph0" class="graph" transform="scale(1 1) rotate(0) translate(4 242.8)">
<title>dependencies</title>
<polygon fill="white" stroke="transparent" points="-4,4 -4,-242.8 2226,-242.8 2226,4 -4,4"/>
<text text-anchor="middle" x="1111" y="-8.2" font-family="sans-serif" font-size="14.00">dependencies</text>
<g id="clust1" class="cluster">
<title>cluster_AppModule</title>
<polygon fill="none" stroke="black" stroke-dasharray="1,5" points="8,-32.8 8,-230.8 494,-230.8 494,-32.8 8,-32.8"/>
</g>
<g id="clust2" class="cluster">
<title>cluster_AppModule_declarations</title>
<polygon fill="none" stroke="black" points="364,-40.8 364,-92.8 486,-92.8 486,-40.8 364,-40.8"/>
</g>
<g id="clust4" class="cluster">
<title>cluster_AppModule_imports</title>
<polygon fill="none" stroke="black" points="212,-40.8 212,-92.8 356,-92.8 356,-40.8 212,-40.8"/>
</g>
<g id="clust6" class="cluster">
<title>cluster_AppModule_bootstrap</title>
<polygon fill="none" stroke="black" points="222,-170.8 222,-222.8 346,-222.8 346,-170.8 222,-170.8"/>
</g>
<g id="clust7" class="cluster">
<title>cluster_AppModule_providers</title>
<polygon fill="none" stroke="black" points="16,-40.8 16,-92.8 204,-92.8 204,-40.8 16,-40.8"/>
</g>
<g id="clust14" class="cluster">
<title>cluster_LoginModule</title>
<polygon fill="none" stroke="black" stroke-dasharray="1,5" points="502,-32.8 502,-230.8 810,-230.8 810,-32.8 502,-32.8"/>
</g>
<g id="clust15" class="cluster">
<title>cluster_LoginModule_declarations</title>
<polygon fill="none" stroke="black" points="672,-40.8 672,-92.8 802,-92.8 802,-40.8 672,-40.8"/>
</g>
<g id="clust17" class="cluster">
<title>cluster_LoginModule_imports</title>
<polygon fill="none" stroke="black" points="510,-40.8 510,-92.8 664,-92.8 664,-40.8 510,-40.8"/>
</g>
<g id="clust18" class="cluster">
<title>cluster_LoginModule_exports</title>
<polygon fill="none" stroke="black" points="594,-170.8 594,-222.8 728,-222.8 728,-170.8 594,-170.8"/>
</g>
<g id="clust27" class="cluster">
<title>cluster_MainPageModule</title>
<polygon fill="none" stroke="black" stroke-dasharray="1,5" points="818,-32.8 818,-230.8 1174,-230.8 1174,-32.8 818,-32.8"/>
</g>
<g id="clust28" class="cluster">
<title>cluster_MainPageModule_declarations</title>
<polygon fill="none" stroke="black" points="1012,-40.8 1012,-92.8 1166,-92.8 1166,-40.8 1012,-40.8"/>
</g>
<g id="clust30" class="cluster">
<title>cluster_MainPageModule_imports</title>
<polygon fill="none" stroke="black" points="826,-40.8 826,-92.8 1004,-92.8 1004,-40.8 826,-40.8"/>
</g>
<g id="clust31" class="cluster">
<title>cluster_MainPageModule_exports</title>
<polygon fill="none" stroke="black" points="922,-170.8 922,-222.8 1080,-222.8 1080,-170.8 922,-170.8"/>
</g>
<g id="clust40" class="cluster">
<title>cluster_RegisterModule</title>
<polygon fill="none" stroke="black" stroke-dasharray="1,5" points="1182,-32.8 1182,-230.8 1518,-230.8 1518,-32.8 1182,-32.8"/>
</g>
<g id="clust41" class="cluster">
<title>cluster_RegisterModule_declarations</title>
<polygon fill="none" stroke="black" points="1366,-40.8 1366,-92.8 1510,-92.8 1510,-40.8 1366,-40.8"/>
</g>
<g id="clust43" class="cluster">
<title>cluster_RegisterModule_imports</title>
<polygon fill="none" stroke="black" points="1190,-40.8 1190,-92.8 1358,-92.8 1358,-40.8 1190,-40.8"/>
</g>
<g id="clust44" class="cluster">
<title>cluster_RegisterModule_exports</title>
<polygon fill="none" stroke="black" points="1281,-170.8 1281,-222.8 1429,-222.8 1429,-170.8 1281,-170.8"/>
</g>
<g id="clust53" class="cluster">
<title>cluster_UserInfoModule</title>
<polygon fill="none" stroke="black" stroke-dasharray="1,5" points="1526,-32.8 1526,-230.8 1868,-230.8 1868,-32.8 1526,-32.8"/>
</g>
<g id="clust54" class="cluster">
<title>cluster_UserInfoModule_declarations</title>
<polygon fill="none" stroke="black" points="1712,-40.8 1712,-92.8 1860,-92.8 1860,-40.8 1712,-40.8"/>
</g>
<g id="clust56" class="cluster">
<title>cluster_UserInfoModule_imports</title>
<polygon fill="none" stroke="black" points="1534,-40.8 1534,-92.8 1704,-92.8 1704,-40.8 1534,-40.8"/>
</g>
<g id="clust57" class="cluster">
<title>cluster_UserInfoModule_exports</title>
<polygon fill="none" stroke="black" points="1627,-170.8 1627,-222.8 1777,-222.8 1777,-170.8 1627,-170.8"/>
</g>
<g id="clust66" class="cluster">
<title>cluster_UserListModule</title>
<polygon fill="none" stroke="black" stroke-dasharray="1,5" points="1876,-32.8 1876,-230.8 2214,-230.8 2214,-32.8 1876,-32.8"/>
</g>
<g id="clust67" class="cluster">
<title>cluster_UserListModule_declarations</title>
<polygon fill="none" stroke="black" points="2060,-40.8 2060,-92.8 2206,-92.8 2206,-40.8 2060,-40.8"/>
</g>
<g id="clust69" class="cluster">
<title>cluster_UserListModule_imports</title>
<polygon fill="none" stroke="black" points="1884,-40.8 1884,-92.8 2052,-92.8 2052,-40.8 1884,-40.8"/>
</g>
<g id="clust70" class="cluster">
<title>cluster_UserListModule_exports</title>
<polygon fill="none" stroke="black" points="1974,-170.8 1974,-222.8 2124,-222.8 2124,-170.8 1974,-170.8"/>
</g>
<!-- AppComponent -->
<g id="node1" class="node">
<title>AppComponent</title>
<polygon fill="#ffffb3" stroke="black" points="477.94,-84.8 372.06,-84.8 372.06,-48.8 477.94,-48.8 477.94,-84.8"/>
<text text-anchor="middle" x="425" y="-62.6" font-family="Times,serif" font-size="14.00">AppComponent</text>
</g>
<!-- AppModule -->
<g id="node2" class="node">
<title>AppModule</title>
<polygon fill="#8dd3c7" stroke="black" points="325.66,-149.8 322.66,-153.8 301.66,-153.8 298.66,-149.8 242.34,-149.8 242.34,-113.8 325.66,-113.8 325.66,-149.8"/>
<text text-anchor="middle" x="284" y="-127.6" font-family="Times,serif" font-size="14.00">AppModule</text>
</g>
<!-- AppComponent&#45;&gt;AppModule -->
<g id="edge1" class="edge">
<title>AppComponent&#45;&gt;AppModule</title>
<path fill="none" stroke="black" d="M425,-84.91C425,-104.14 425,-131.8 425,-131.8 425,-131.8 335.92,-131.8 335.92,-131.8"/>
<polygon fill="black" stroke="black" points="335.92,-128.3 325.92,-131.8 335.92,-135.3 335.92,-128.3"/>
</g>
<!-- AppComponent  -->
<g id="node4" class="node">
<title>AppComponent </title>
<polygon fill="#80b1d3" stroke="black" points="338.44,-214.8 229.56,-214.8 229.56,-178.8 338.44,-178.8 338.44,-214.8"/>
<text text-anchor="middle" x="284" y="-192.6" font-family="Times,serif" font-size="14.00">AppComponent </text>
</g>
<!-- AppModule&#45;&gt;AppComponent  -->
<g id="edge3" class="edge">
<title>AppModule&#45;&gt;AppComponent </title>
<path fill="none" stroke="black" stroke-dasharray="1,5" d="M284,-149.91C284,-149.91 284,-168.79 284,-168.79"/>
<polygon fill="black" stroke="black" points="280.5,-168.79 284,-178.79 287.5,-168.79 280.5,-168.79"/>
</g>
<!-- AppRoutingModule -->
<g id="node3" class="node">
<title>AppRoutingModule</title>
<polygon fill="#8dd3c7" stroke="black" points="348.28,-84.8 345.28,-88.8 324.28,-88.8 321.28,-84.8 219.72,-84.8 219.72,-48.8 348.28,-48.8 348.28,-84.8"/>
<text text-anchor="middle" x="284" y="-62.6" font-family="Times,serif" font-size="14.00">AppRoutingModule</text>
</g>
<!-- AppRoutingModule&#45;&gt;AppModule -->
<g id="edge2" class="edge">
<title>AppRoutingModule&#45;&gt;AppModule</title>
<path fill="none" stroke="black" d="M284,-84.91C284,-84.91 284,-103.79 284,-103.79"/>
<polygon fill="black" stroke="black" points="280.5,-103.79 284,-113.79 287.5,-103.79 280.5,-103.79"/>
</g>
<!-- LoggingInterceptor -->
<g id="node5" class="node">
<title>LoggingInterceptor</title>
<ellipse fill="#fdb462" stroke="black" cx="110" cy="-66.8" rx="86.24" ry="18"/>
<text text-anchor="middle" x="110" y="-62.6" font-family="Times,serif" font-size="14.00">LoggingInterceptor</text>
</g>
<!-- LoggingInterceptor&#45;&gt;AppModule -->
<g id="edge4" class="edge">
<title>LoggingInterceptor&#45;&gt;AppModule</title>
<path fill="none" stroke="black" d="M110,-84.91C110,-104.14 110,-131.8 110,-131.8 110,-131.8 232.32,-131.8 232.32,-131.8"/>
<polygon fill="black" stroke="black" points="232.32,-135.3 242.32,-131.8 232.32,-128.3 232.32,-135.3"/>
</g>
<!-- LoginComponent -->
<g id="node6" class="node">
<title>LoginComponent</title>
<polygon fill="#ffffb3" stroke="black" points="794.27,-84.8 679.73,-84.8 679.73,-48.8 794.27,-48.8 794.27,-84.8"/>
<text text-anchor="middle" x="737" y="-62.6" font-family="Times,serif" font-size="14.00">LoginComponent</text>
</g>
<!-- LoginModule -->
<g id="node7" class="node">
<title>LoginModule</title>
<polygon fill="#8dd3c7" stroke="black" points="707.49,-149.8 704.49,-153.8 683.49,-153.8 680.49,-149.8 614.51,-149.8 614.51,-113.8 707.49,-113.8 707.49,-149.8"/>
<text text-anchor="middle" x="661" y="-127.6" font-family="Times,serif" font-size="14.00">LoginModule</text>
</g>
<!-- LoginComponent&#45;&gt;LoginModule -->
<g id="edge5" class="edge">
<title>LoginComponent&#45;&gt;LoginModule</title>
<path fill="none" stroke="black" d="M693.56,-84.91C693.56,-84.91 693.56,-103.79 693.56,-103.79"/>
<polygon fill="black" stroke="black" points="690.06,-103.79 693.56,-113.79 697.06,-103.79 690.06,-103.79"/>
</g>
<!-- LoginComponent  -->
<g id="node9" class="node">
<title>LoginComponent </title>
<polygon fill="#fb8072" stroke="black" points="720.27,-214.8 601.73,-214.8 601.73,-178.8 720.27,-178.8 720.27,-214.8"/>
<text text-anchor="middle" x="661" y="-192.6" font-family="Times,serif" font-size="14.00">LoginComponent </text>
</g>
<!-- LoginModule&#45;&gt;LoginComponent  -->
<g id="edge7" class="edge">
<title>LoginModule&#45;&gt;LoginComponent </title>
<path fill="none" stroke="black" stroke-dasharray="5,2" d="M661,-149.91C661,-149.91 661,-168.79 661,-168.79"/>
<polygon fill="black" stroke="black" points="657.5,-168.79 661,-178.79 664.5,-168.79 657.5,-168.79"/>
</g>
<!-- LoginRoutingModule -->
<g id="node8" class="node">
<title>LoginRoutingModule</title>
<polygon fill="#8dd3c7" stroke="black" points="656.11,-84.8 653.11,-88.8 632.11,-88.8 629.11,-84.8 517.89,-84.8 517.89,-48.8 656.11,-48.8 656.11,-84.8"/>
<text text-anchor="middle" x="587" y="-62.6" font-family="Times,serif" font-size="14.00">LoginRoutingModule</text>
</g>
<!-- LoginRoutingModule&#45;&gt;LoginModule -->
<g id="edge6" class="edge">
<title>LoginRoutingModule&#45;&gt;LoginModule</title>
<path fill="none" stroke="black" d="M635.28,-84.91C635.28,-84.91 635.28,-103.79 635.28,-103.79"/>
<polygon fill="black" stroke="black" points="631.78,-103.79 635.28,-113.79 638.78,-103.79 631.78,-103.79"/>
</g>
<!-- MainPageComponent -->
<g id="node10" class="node">
<title>MainPageComponent</title>
<polygon fill="#ffffb3" stroke="black" points="1158.1,-84.8 1019.9,-84.8 1019.9,-48.8 1158.1,-48.8 1158.1,-84.8"/>
<text text-anchor="middle" x="1089" y="-62.6" font-family="Times,serif" font-size="14.00">MainPageComponent</text>
</g>
<!-- MainPageModule -->
<g id="node11" class="node">
<title>MainPageModule</title>
<polygon fill="#8dd3c7" stroke="black" points="1059.32,-149.8 1056.32,-153.8 1035.32,-153.8 1032.32,-149.8 942.68,-149.8 942.68,-113.8 1059.32,-113.8 1059.32,-149.8"/>
<text text-anchor="middle" x="1001" y="-127.6" font-family="Times,serif" font-size="14.00">MainPageModule</text>
</g>
<!-- MainPageComponent&#45;&gt;MainPageModule -->
<g id="edge8" class="edge">
<title>MainPageComponent&#45;&gt;MainPageModule</title>
<path fill="none" stroke="black" d="M1039.56,-84.91C1039.56,-84.91 1039.56,-103.79 1039.56,-103.79"/>
<polygon fill="black" stroke="black" points="1036.06,-103.79 1039.56,-113.79 1043.06,-103.79 1036.06,-103.79"/>
</g>
<!-- MainPageComponent  -->
<g id="node13" class="node">
<title>MainPageComponent </title>
<polygon fill="#fb8072" stroke="black" points="1071.6,-214.8 930.4,-214.8 930.4,-178.8 1071.6,-178.8 1071.6,-214.8"/>
<text text-anchor="middle" x="1001" y="-192.6" font-family="Times,serif" font-size="14.00">MainPageComponent </text>
</g>
<!-- MainPageModule&#45;&gt;MainPageComponent  -->
<g id="edge10" class="edge">
<title>MainPageModule&#45;&gt;MainPageComponent </title>
<path fill="none" stroke="black" stroke-dasharray="5,2" d="M1001,-149.91C1001,-149.91 1001,-168.79 1001,-168.79"/>
<polygon fill="black" stroke="black" points="997.5,-168.79 1001,-178.79 1004.5,-168.79 997.5,-168.79"/>
</g>
<!-- MainPageRoutingModule -->
<g id="node12" class="node">
<title>MainPageRoutingModule</title>
<polygon fill="#8dd3c7" stroke="black" points="995.94,-84.8 992.94,-88.8 971.94,-88.8 968.94,-84.8 834.06,-84.8 834.06,-48.8 995.94,-48.8 995.94,-84.8"/>
<text text-anchor="middle" x="915" y="-62.6" font-family="Times,serif" font-size="14.00">MainPageRoutingModule</text>
</g>
<!-- MainPageRoutingModule&#45;&gt;MainPageModule -->
<g id="edge9" class="edge">
<title>MainPageRoutingModule&#45;&gt;MainPageModule</title>
<path fill="none" stroke="black" d="M969.28,-84.91C969.28,-84.91 969.28,-103.79 969.28,-103.79"/>
<polygon fill="black" stroke="black" points="965.78,-103.79 969.28,-113.79 972.78,-103.79 965.78,-103.79"/>
</g>
<!-- RegisterComponent -->
<g id="node14" class="node">
<title>RegisterComponent</title>
<polygon fill="#ffffb3" stroke="black" points="1501.99,-84.8 1374.01,-84.8 1374.01,-48.8 1501.99,-48.8 1501.99,-84.8"/>
<text text-anchor="middle" x="1438" y="-62.6" font-family="Times,serif" font-size="14.00">RegisterComponent</text>
</g>
<!-- RegisterModule -->
<g id="node15" class="node">
<title>RegisterModule</title>
<polygon fill="#8dd3c7" stroke="black" points="1408.21,-149.8 1405.21,-153.8 1384.21,-153.8 1381.21,-149.8 1301.79,-149.8 1301.79,-113.8 1408.21,-113.8 1408.21,-149.8"/>
<text text-anchor="middle" x="1355" y="-127.6" font-family="Times,serif" font-size="14.00">RegisterModule</text>
</g>
<!-- RegisterComponent&#45;&gt;RegisterModule -->
<g id="edge11" class="edge">
<title>RegisterComponent&#45;&gt;RegisterModule</title>
<path fill="none" stroke="black" d="M1391.06,-84.91C1391.06,-84.91 1391.06,-103.79 1391.06,-103.79"/>
<polygon fill="black" stroke="black" points="1387.56,-103.79 1391.06,-113.79 1394.56,-103.79 1387.56,-103.79"/>
</g>
<!-- RegisterComponent  -->
<g id="node17" class="node">
<title>RegisterComponent </title>
<polygon fill="#fb8072" stroke="black" points="1420.99,-214.8 1289.01,-214.8 1289.01,-178.8 1420.99,-178.8 1420.99,-214.8"/>
<text text-anchor="middle" x="1355" y="-192.6" font-family="Times,serif" font-size="14.00">RegisterComponent </text>
</g>
<!-- RegisterModule&#45;&gt;RegisterComponent  -->
<g id="edge13" class="edge">
<title>RegisterModule&#45;&gt;RegisterComponent </title>
<path fill="none" stroke="black" stroke-dasharray="5,2" d="M1355,-149.91C1355,-149.91 1355,-168.79 1355,-168.79"/>
<polygon fill="black" stroke="black" points="1351.5,-168.79 1355,-178.79 1358.5,-168.79 1351.5,-168.79"/>
</g>
<!-- RegisterRoutingModule -->
<g id="node16" class="node">
<title>RegisterRoutingModule</title>
<polygon fill="#8dd3c7" stroke="black" points="1349.82,-84.8 1346.82,-88.8 1325.82,-88.8 1322.82,-84.8 1198.18,-84.8 1198.18,-48.8 1349.82,-48.8 1349.82,-84.8"/>
<text text-anchor="middle" x="1274" y="-62.6" font-family="Times,serif" font-size="14.00">RegisterRoutingModule</text>
</g>
<!-- RegisterRoutingModule&#45;&gt;RegisterModule -->
<g id="edge12" class="edge">
<title>RegisterRoutingModule&#45;&gt;RegisterModule</title>
<path fill="none" stroke="black" d="M1325.78,-84.91C1325.78,-84.91 1325.78,-103.79 1325.78,-103.79"/>
<polygon fill="black" stroke="black" points="1322.28,-103.79 1325.78,-113.79 1329.28,-103.79 1322.28,-103.79"/>
</g>
<!-- UserInfoComponent -->
<g id="node18" class="node">
<title>UserInfoComponent</title>
<polygon fill="#ffffb3" stroke="black" points="1851.59,-84.8 1720.41,-84.8 1720.41,-48.8 1851.59,-48.8 1851.59,-84.8"/>
<text text-anchor="middle" x="1786" y="-62.6" font-family="Times,serif" font-size="14.00">UserInfoComponent</text>
</g>
<!-- UserInfoModule -->
<g id="node19" class="node">
<title>UserInfoModule</title>
<polygon fill="#8dd3c7" stroke="black" points="1756.81,-149.8 1753.81,-153.8 1732.81,-153.8 1729.81,-149.8 1647.19,-149.8 1647.19,-113.8 1756.81,-113.8 1756.81,-149.8"/>
<text text-anchor="middle" x="1702" y="-127.6" font-family="Times,serif" font-size="14.00">UserInfoModule</text>
</g>
<!-- UserInfoComponent&#45;&gt;UserInfoModule -->
<g id="edge14" class="edge">
<title>UserInfoComponent&#45;&gt;UserInfoModule</title>
<path fill="none" stroke="black" d="M1738.56,-84.91C1738.56,-84.91 1738.56,-103.79 1738.56,-103.79"/>
<polygon fill="black" stroke="black" points="1735.06,-103.79 1738.56,-113.79 1742.06,-103.79 1735.06,-103.79"/>
</g>
<!-- UserInfoComponent  -->
<g id="node21" class="node">
<title>UserInfoComponent </title>
<polygon fill="#fb8072" stroke="black" points="1769.09,-214.8 1634.91,-214.8 1634.91,-178.8 1769.09,-178.8 1769.09,-214.8"/>
<text text-anchor="middle" x="1702" y="-192.6" font-family="Times,serif" font-size="14.00">UserInfoComponent </text>
</g>
<!-- UserInfoModule&#45;&gt;UserInfoComponent  -->
<g id="edge16" class="edge">
<title>UserInfoModule&#45;&gt;UserInfoComponent </title>
<path fill="none" stroke="black" stroke-dasharray="5,2" d="M1702,-149.91C1702,-149.91 1702,-168.79 1702,-168.79"/>
<polygon fill="black" stroke="black" points="1698.5,-168.79 1702,-178.79 1705.5,-168.79 1698.5,-168.79"/>
</g>
<!-- UserInfoRoutingModule -->
<g id="node20" class="node">
<title>UserInfoRoutingModule</title>
<polygon fill="#8dd3c7" stroke="black" points="1696.43,-84.8 1693.43,-88.8 1672.43,-88.8 1669.43,-84.8 1541.57,-84.8 1541.57,-48.8 1696.43,-48.8 1696.43,-84.8"/>
<text text-anchor="middle" x="1619" y="-62.6" font-family="Times,serif" font-size="14.00">UserInfoRoutingModule</text>
</g>
<!-- UserInfoRoutingModule&#45;&gt;UserInfoModule -->
<g id="edge15" class="edge">
<title>UserInfoRoutingModule&#45;&gt;UserInfoModule</title>
<path fill="none" stroke="black" d="M1671.78,-84.91C1671.78,-84.91 1671.78,-103.79 1671.78,-103.79"/>
<polygon fill="black" stroke="black" points="1668.28,-103.79 1671.78,-113.79 1675.28,-103.79 1668.28,-103.79"/>
</g>
<!-- UserListComponent -->
<g id="node22" class="node">
<title>UserListComponent</title>
<polygon fill="#ffffb3" stroke="black" points="2197.55,-84.8 2068.45,-84.8 2068.45,-48.8 2197.55,-48.8 2197.55,-84.8"/>
<text text-anchor="middle" x="2133" y="-62.6" font-family="Times,serif" font-size="14.00">UserListComponent</text>
</g>
<!-- UserListModule -->
<g id="node23" class="node">
<title>UserListModule</title>
<polygon fill="#8dd3c7" stroke="black" points="2102.77,-149.8 2099.77,-153.8 2078.77,-153.8 2075.77,-149.8 1995.23,-149.8 1995.23,-113.8 2102.77,-113.8 2102.77,-149.8"/>
<text text-anchor="middle" x="2049" y="-127.6" font-family="Times,serif" font-size="14.00">UserListModule</text>
</g>
<!-- UserListComponent&#45;&gt;UserListModule -->
<g id="edge17" class="edge">
<title>UserListComponent&#45;&gt;UserListModule</title>
<path fill="none" stroke="black" d="M2085.56,-84.91C2085.56,-84.91 2085.56,-103.79 2085.56,-103.79"/>
<polygon fill="black" stroke="black" points="2082.06,-103.79 2085.56,-113.79 2089.06,-103.79 2082.06,-103.79"/>
</g>
<!-- UserListComponent  -->
<g id="node25" class="node">
<title>UserListComponent </title>
<polygon fill="#fb8072" stroke="black" points="2115.54,-214.8 1982.46,-214.8 1982.46,-178.8 2115.54,-178.8 2115.54,-214.8"/>
<text text-anchor="middle" x="2049" y="-192.6" font-family="Times,serif" font-size="14.00">UserListComponent </text>
</g>
<!-- UserListModule&#45;&gt;UserListComponent  -->
<g id="edge19" class="edge">
<title>UserListModule&#45;&gt;UserListComponent </title>
<path fill="none" stroke="black" stroke-dasharray="5,2" d="M2049,-149.91C2049,-149.91 2049,-168.79 2049,-168.79"/>
<polygon fill="black" stroke="black" points="2045.5,-168.79 2049,-178.79 2052.5,-168.79 2045.5,-168.79"/>
</g>
<!-- UserListRoutingModule -->
<g id="node24" class="node">
<title>UserListRoutingModule</title>
<polygon fill="#8dd3c7" stroke="black" points="2044.38,-84.8 2041.38,-88.8 2020.38,-88.8 2017.38,-84.8 1891.62,-84.8 1891.62,-48.8 2044.38,-48.8 2044.38,-84.8"/>
<text text-anchor="middle" x="1968" y="-62.6" font-family="Times,serif" font-size="14.00">UserListRoutingModule</text>
</g>
<!-- UserListRoutingModule&#45;&gt;UserListModule -->
<g id="edge18" class="edge">
<title>UserListRoutingModule&#45;&gt;UserListModule</title>
<path fill="none" stroke="black" d="M2019.78,-84.91C2019.78,-84.91 2019.78,-103.79 2019.78,-103.79"/>
<polygon fill="black" stroke="black" points="2016.28,-103.79 2019.78,-113.79 2023.28,-103.79 2016.28,-103.79"/>
</g>
</g>
</svg>
