<?xml version="1.0" encoding="UTF-8" standalone="no"?>
<!DOCTYPE svg PUBLIC "-//W3C//DTD SVG 1.1//EN"
 "http://www.w3.org/Graphics/SVG/1.1/DTD/svg11.dtd">
<!-- Generated by graphviz version 5.0.0 (20220707.1540)
 -->
<!-- Title: dependencies Pages: 1 -->
<svg width="362pt" height="247pt"
 viewBox="0.00 0.00 362.00 246.80" xmlns="http://www.w3.org/2000/svg" xmlns:xlink="http://www.w3.org/1999/xlink">
<g id="graph0" class="graph" transform="scale(1 1) rotate(0) translate(4 242.8)">
<title>dependencies</title>
<polygon fill="white" stroke="transparent" points="-4,4 -4,-242.8 358,-242.8 358,4 -4,4"/>
<text text-anchor="middle" x="177" y="-8.2" font-family="sans-serif" font-size="14.00">dependencies</text>
<g id="clust1" class="cluster">
<title>cluster_UserListModule</title>
<polygon fill="none" stroke="black" stroke-dasharray="1,5" points="8,-32.8 8,-230.8 346,-230.8 346,-32.8 8,-32.8"/>
</g>
<g id="clust4" class="cluster">
<title>cluster_UserListModule_imports</title>
<polygon fill="none" stroke="black" points="170,-40.8 170,-92.8 338,-92.8 338,-40.8 170,-40.8"/>
</g>
<g id="clust5" class="cluster">
<title>cluster_UserListModule_exports</title>
<polygon fill="none" stroke="black" points="97,-170.8 97,-222.8 247,-222.8 247,-170.8 97,-170.8"/>
</g>
<g id="clust2" class="cluster">
<title>cluster_UserListModule_declarations</title>
<polygon fill="none" stroke="black" points="16,-40.8 16,-92.8 162,-92.8 162,-40.8 16,-40.8"/>
</g>
<!-- UserListComponent -->
<g id="node1" class="node">
<title>UserListComponent</title>
<polygon fill="#ffffb3" stroke="black" points="153.55,-84.8 24.45,-84.8 24.45,-48.8 153.55,-48.8 153.55,-84.8"/>
<text text-anchor="middle" x="89" y="-62.6" font-family="Times,serif" font-size="14.00">UserListComponent</text>
</g>
<!-- UserListModule -->
<g id="node2" class="node">
<title>UserListModule</title>
<polygon fill="#8dd3c7" stroke="black" points="225.77,-149.8 222.77,-153.8 201.77,-153.8 198.77,-149.8 118.23,-149.8 118.23,-113.8 225.77,-113.8 225.77,-149.8"/>
<text text-anchor="middle" x="172" y="-127.6" font-family="Times,serif" font-size="14.00">UserListModule</text>
</g>
<!-- UserListComponent&#45;&gt;UserListModule -->
<g id="edge1" class="edge">
<title>UserListComponent&#45;&gt;UserListModule</title>
<path fill="none" stroke="black" d="M135.94,-84.91C135.94,-84.91 135.94,-103.79 135.94,-103.79"/>
<polygon fill="black" stroke="black" points="132.44,-103.79 135.94,-113.79 139.44,-103.79 132.44,-103.79"/>
</g>
<!-- UserListComponent  -->
<g id="node4" class="node">
<title>UserListComponent </title>
<polygon fill="#fb8072" stroke="black" points="238.54,-214.8 105.46,-214.8 105.46,-178.8 238.54,-178.8 238.54,-214.8"/>
<text text-anchor="middle" x="172" y="-192.6" font-family="Times,serif" font-size="14.00">UserListComponent </text>
</g>
<!-- UserListModule&#45;&gt;UserListComponent  -->
<g id="edge3" class="edge">
<title>UserListModule&#45;&gt;UserListComponent </title>
<path fill="none" stroke="black" stroke-dasharray="5,2" d="M172,-149.91C172,-149.91 172,-168.79 172,-168.79"/>
<polygon fill="black" stroke="black" points="168.5,-168.79 172,-178.79 175.5,-168.79 168.5,-168.79"/>
</g>
<!-- UserListRoutingModule -->
<g id="node3" class="node">
<title>UserListRoutingModule</title>
<polygon fill="#8dd3c7" stroke="black" points="330.38,-84.8 327.38,-88.8 306.38,-88.8 303.38,-84.8 177.62,-84.8 177.62,-48.8 330.38,-48.8 330.38,-84.8"/>
<text text-anchor="middle" x="254" y="-62.6" font-family="Times,serif" font-size="14.00">UserListRoutingModule</text>
</g>
<!-- UserListRoutingModule&#45;&gt;UserListModule -->
<g id="edge2" class="edge">
<title>UserListRoutingModule&#45;&gt;UserListModule</title>
<path fill="none" stroke="black" d="M201.72,-84.91C201.72,-84.91 201.72,-103.79 201.72,-103.79"/>
<polygon fill="black" stroke="black" points="198.22,-103.79 201.72,-113.79 205.22,-103.79 198.22,-103.79"/>
</g>
</g>
</svg>
