<?xml version="1.0" encoding="UTF-8" standalone="no"?>
<!DOCTYPE svg PUBLIC "-//W3C//DTD SVG 1.1//EN"
 "http://www.w3.org/Graphics/SVG/1.1/DTD/svg11.dtd">
<!-- Generated by graphviz version 5.0.0 (20220707.1540)
 -->
<!-- Title: dependencies Pages: 1 -->
<svg width="360pt" height="247pt"
 viewBox="0.00 0.00 360.00 246.80" xmlns="http://www.w3.org/2000/svg" xmlns:xlink="http://www.w3.org/1999/xlink">
<g id="graph0" class="graph" transform="scale(1 1) rotate(0) translate(4 242.8)">
<title>dependencies</title>
<polygon fill="white" stroke="transparent" points="-4,4 -4,-242.8 356,-242.8 356,4 -4,4"/>
<text text-anchor="middle" x="176" y="-8.2" font-family="sans-serif" font-size="14.00">dependencies</text>
<g id="clust1" class="cluster">
<title>cluster_RegisterModule</title>
<polygon fill="none" stroke="black" stroke-dasharray="1,5" points="8,-32.8 8,-230.8 344,-230.8 344,-32.8 8,-32.8"/>
</g>
<g id="clust4" class="cluster">
<title>cluster_RegisterModule_imports</title>
<polygon fill="none" stroke="black" points="168,-40.8 168,-92.8 336,-92.8 336,-40.8 168,-40.8"/>
</g>
<g id="clust5" class="cluster">
<title>cluster_RegisterModule_exports</title>
<polygon fill="none" stroke="black" points="97,-170.8 97,-222.8 245,-222.8 245,-170.8 97,-170.8"/>
</g>
<g id="clust2" class="cluster">
<title>cluster_RegisterModule_declarations</title>
<polygon fill="none" stroke="black" points="16,-40.8 16,-92.8 160,-92.8 160,-40.8 16,-40.8"/>
</g>
<!-- RegisterComponent -->
<g id="node1" class="node">
<title>RegisterComponent</title>
<polygon fill="#ffffb3" stroke="black" points="151.99,-84.8 24.01,-84.8 24.01,-48.8 151.99,-48.8 151.99,-84.8"/>
<text text-anchor="middle" x="88" y="-62.6" font-family="Times,serif" font-size="14.00">RegisterComponent</text>
</g>
<!-- RegisterModule -->
<g id="node2" class="node">
<title>RegisterModule</title>
<polygon fill="#8dd3c7" stroke="black" points="224.21,-149.8 221.21,-153.8 200.21,-153.8 197.21,-149.8 117.79,-149.8 117.79,-113.8 224.21,-113.8 224.21,-149.8"/>
<text text-anchor="middle" x="171" y="-127.6" font-family="Times,serif" font-size="14.00">RegisterModule</text>
</g>
<!-- RegisterComponent&#45;&gt;RegisterModule -->
<g id="edge1" class="edge">
<title>RegisterComponent&#45;&gt;RegisterModule</title>
<path fill="none" stroke="black" d="M134.94,-84.91C134.94,-84.91 134.94,-103.79 134.94,-103.79"/>
<polygon fill="black" stroke="black" points="131.44,-103.79 134.94,-113.79 138.44,-103.79 131.44,-103.79"/>
</g>
<!-- RegisterComponent  -->
<g id="node4" class="node">
<title>RegisterComponent </title>
<polygon fill="#fb8072" stroke="black" points="236.99,-214.8 105.01,-214.8 105.01,-178.8 236.99,-178.8 236.99,-214.8"/>
<text text-anchor="middle" x="171" y="-192.6" font-family="Times,serif" font-size="14.00">RegisterComponent </text>
</g>
<!-- RegisterModule&#45;&gt;RegisterComponent  -->
<g id="edge3" class="edge">
<title>RegisterModule&#45;&gt;RegisterComponent </title>
<path fill="none" stroke="black" stroke-dasharray="5,2" d="M171,-149.91C171,-149.91 171,-168.79 171,-168.79"/>
<polygon fill="black" stroke="black" points="167.5,-168.79 171,-178.79 174.5,-168.79 167.5,-168.79"/>
</g>
<!-- RegisterRoutingModule -->
<g id="node3" class="node">
<title>RegisterRoutingModule</title>
<polygon fill="#8dd3c7" stroke="black" points="327.82,-84.8 324.82,-88.8 303.82,-88.8 300.82,-84.8 176.18,-84.8 176.18,-48.8 327.82,-48.8 327.82,-84.8"/>
<text text-anchor="middle" x="252" y="-62.6" font-family="Times,serif" font-size="14.00">RegisterRoutingModule</text>
</g>
<!-- RegisterRoutingModule&#45;&gt;RegisterModule -->
<g id="edge2" class="edge">
<title>RegisterRoutingModule&#45;&gt;RegisterModule</title>
<path fill="none" stroke="black" d="M200.22,-84.91C200.22,-84.91 200.22,-103.79 200.22,-103.79"/>
<polygon fill="black" stroke="black" points="196.72,-103.79 200.22,-113.79 203.72,-103.79 196.72,-103.79"/>
</g>
</g>
</svg>
